<?xml version="1.0" encoding="utf-8"?>
<!DOCTYPE svg PUBLIC "-//W3C//DTD SVG 1.1//EN" "http://www.w3.org/Graphics/SVG/1.1/DTD/svg11.dtd">
<!-- Generated by graphviz version 12.1.0 (20240811.2233)
 -->
<!-- Title: stones Pages: 1 -->
<svg height="814pt" viewBox="0.00 0.00 929.0 814.0" width="929pt" xmlns="http://www.w3.org/2000/svg" xmlns:xlink="http://www.w3.org/1999/xlink">
 <g class="graph" id="graph0" transform="scale(1 1) rotate(0) translate(4 760)">
  <title>
   stones
  </title>
  <polygon fill="white" points="-4,4 -4,-760 875,-760 875,4 -4,4" stroke="none"/>
  <!-- Leetcode&#45;链表 -->
  <g class="node" id="node1">
   <title>
    Leetcode-链表
   </title>
   <g id="a_node1">
    <a target="_parent" xlink:href="https://leetcode-cn.com/tag/linked-list" xlink:title="Leetcode-链表(36)">
     <polygon fill="orangered" points="499.25,-756 361,-756 361,-720 499.25,-720 499.25,-756" stroke="lightgrey"/>
     <text fill="white" font-family="Microsoft YaHei" font-size="14.00" text-anchor="middle" x="430.12" y="-734.08">
      Leetcode-链表(36)
     </text>
    </a>
   </g>
  </g>
  <!-- 链表第一题 -->
  <g class="node" id="node2">
   <title>
    链表第一题
   </title>
   <polygon fill="lightslategray" points="135.25,-684 45,-684 45,-648 135.25,-648 135.25,-684" stroke="lightgrey"/>
   <text fill="white" font-family="Microsoft YaHei" font-size="12.00" text-anchor="middle" x="90.12" y="-662.85">
    链表第一题(1)
   </text>
  </g>
  <!-- Leetcode&#45;链表&#45;&gt;链表第一题 -->
  <g class="edge" id="edge1">
   <title>
    Leetcode-链表-&gt;链表第一题
   </title>
   <path d="M360.78,-726.1C303.22,-716.55 219.39,-701.49 147.12,-684 147.01,-683.97 146.89,-683.94 146.78,-683.92" fill="none" stroke="lightgrey"/>
   <polygon fill="lightgrey" points="147.77,-680.56 137.21,-681.44 146.02,-687.33 147.77,-680.56" stroke="lightgrey"/>
  </g>
  <!-- 反转链表 -->
  <g class="node" id="node4">
   <title>
    反转链表
   </title>
   <polygon fill="lightslategray" points="234.25,-684 156,-684 156,-648 234.25,-648 234.25,-684" stroke="lightgrey"/>
   <text fill="white" font-family="Microsoft YaHei" font-size="12.00" text-anchor="middle" x="195.12" y="-662.85">
    反转链表(6)
   </text>
  </g>
  <!-- Leetcode&#45;链表&#45;&gt;反转链表 -->
  <g class="edge" id="edge3">
   <title>
    Leetcode-链表-&gt;反转链表
   </title>
   <path d="M371.43,-719.52C332.75,-707.99 282.6,-693.06 245.68,-682.06" fill="none" stroke="lightgrey"/>
   <polygon fill="lightgrey" points="246.71,-678.71 236.13,-679.21 244.72,-685.42 246.71,-678.71" stroke="lightgrey"/>
  </g>
  <!-- 删除链表 -->
  <g class="node" id="node11">
   <title>
    删除链表
   </title>
   <polygon fill="lightslategray" points="355.25,-684 277,-684 277,-648 355.25,-648 355.25,-684" stroke="lightgrey"/>
   <text fill="white" font-family="Microsoft YaHei" font-size="12.00" text-anchor="middle" x="316.12" y="-662.85">
    删除链表(5)
   </text>
  </g>
  <!-- Leetcode&#45;链表&#45;&gt;删除链表 -->
  <g class="edge" id="edge10">
   <title>
    Leetcode-链表-&gt;删除链表
   </title>
   <path d="M401.65,-719.52C387.12,-710.6 369.27,-699.63 353.63,-690.03" fill="none" stroke="lightgrey"/>
   <polygon fill="lightgrey" points="355.88,-687.3 345.52,-685.05 352.22,-693.27 355.88,-687.3" stroke="lightgrey"/>
  </g>
  <!-- 构建新链表 -->
  <g class="node" id="node17">
   <title>
    构建新链表
   </title>
   <polygon fill="lightslategray" points="475.25,-684 385,-684 385,-648 475.25,-648 475.25,-684" stroke="lightgrey"/>
   <text fill="white" font-family="Microsoft YaHei" font-size="12.00" text-anchor="middle" x="430.12" y="-662.85">
    构建新链表(9)
   </text>
  </g>
  <!-- Leetcode&#45;链表&#45;&gt;构建新链表 -->
  <g class="edge" id="edge16">
   <title>
    Leetcode-链表-&gt;构建新链表
   </title>
   <path d="M430.12,-719.7C430.12,-712.41 430.12,-703.73 430.12,-695.54" fill="none" stroke="lightgrey"/>
   <polygon fill="lightgrey" points="433.63,-695.62 430.13,-685.62 426.63,-695.62 433.63,-695.62" stroke="lightgrey"/>
  </g>
  <!-- 快慢指针 -->
  <g class="node" id="node27">
   <title>
    快慢指针
   </title>
   <polygon fill="lightslategray" points="571.25,-684 493,-684 493,-648 571.25,-648 571.25,-684" stroke="lightgrey"/>
   <text fill="white" font-family="Microsoft YaHei" font-size="12.00" text-anchor="middle" x="532.12" y="-662.85">
    快慢指针(8)
   </text>
  </g>
  <!-- Leetcode&#45;链表&#45;&gt;快慢指针 -->
  <g class="edge" id="edge26">
   <title>
    Leetcode-链表-&gt;快慢指针
   </title>
   <path d="M455.6,-719.52C468.35,-710.76 483.98,-700.04 497.77,-690.58" fill="none" stroke="lightgrey"/>
   <polygon fill="lightgrey" points="499.46,-693.66 505.73,-685.12 495.5,-687.89 499.46,-693.66" stroke="lightgrey"/>
  </g>
  <!-- 链表和其他算法 -->
  <g class="node" id="node36">
   <title>
    链表和其他算法
   </title>
   <polygon fill="lightslategray" points="703.25,-684 589,-684 589,-648 703.25,-648 703.25,-684" stroke="lightgrey"/>
   <text fill="white" font-family="Microsoft YaHei" font-size="12.00" text-anchor="middle" x="646.12" y="-662.85">
    链表和其他算法(7)
   </text>
  </g>
  <!-- Leetcode&#45;链表&#45;&gt;链表和其他算法 -->
  <g class="edge" id="edge35">
   <title>
    Leetcode-链表-&gt;链表和其他算法
   </title>
   <path d="M484.07,-719.52C513.69,-709.92 550.62,-697.95 581.75,-687.86" fill="none" stroke="lightgrey"/>
   <polygon fill="lightgrey" points="582.62,-691.26 591.05,-684.85 580.46,-684.6 582.62,-691.26" stroke="lightgrey"/>
  </g>
  <!-- 设计题 -->
  <g class="node" id="node44">
   <title>
    设计题
   </title>
   <polygon fill="lightslategray" points="787.25,-684 721,-684 721,-648 787.25,-648 787.25,-684" stroke="lightgrey"/>
   <text fill="white" font-family="Microsoft YaHei" font-size="12.00" text-anchor="middle" x="754.12" y="-662.85">
    设计题(0)
   </text>
  </g>
  <!-- Leetcode&#45;链表&#45;&gt;设计题 -->
  <g class="edge" id="edge43">
   <title>
    Leetcode-链表-&gt;设计题
   </title>
   <path d="M499.7,-727.86C554.75,-719.74 633.55,-706.14 710.09,-684.3" fill="none" stroke="lightgrey"/>
   <polygon fill="lightgrey" points="710.79,-687.74 719.41,-681.58 708.83,-681.01 710.79,-687.74" stroke="lightgrey"/>
  </g>
  <!-- 707 -->
  <g class="node" id="node3">
   <title>
    707
   </title>
   <g id="a_node3">
    <a target="_parent" xlink:href="https://leetcode-cn.com/problems/design-linked-list" xlink:title="707. 设计链表">
     <polygon fill="none" points="113.62,-612 22.62,-612 22.62,-576 113.62,-576 113.62,-612" stroke="orange"/>
     <text font-family="Microsoft YaHei" font-size="12.00" text-anchor="middle" x="68.12" y="-590.85">
      707. 设计链表
     </text>
    </a>
   </g>
  </g>
  <!-- 链表第一题&#45;&gt;707 -->
  <g class="edge" id="edge2">
   <title>
    链表第一题-&gt;707
   </title>
   <path d="M84.69,-647.7C82.34,-640.24 79.54,-631.32 76.91,-622.97" fill="none" stroke="lightgrey"/>
   <polygon fill="lightgrey" points="80.29,-622.04 73.95,-613.55 73.61,-624.14 80.29,-622.04" stroke="lightgrey"/>
  </g>
  <!-- 234 -->
  <g class="node" id="node5">
   <title>
    234
   </title>
   <g id="a_node5">
    <a target="_parent" xlink:href="https://leetcode-cn.com/problems/palindrome-linked-list" xlink:title="234. 回文链表">
     <polygon fill="none" points="222.62,-612 131.62,-612 131.62,-576 222.62,-576 222.62,-612" stroke="greenyellow"/>
     <text font-family="Microsoft YaHei" font-size="12.00" text-anchor="middle" x="177.12" y="-590.85">
      234. 回文链表
     </text>
    </a>
   </g>
  </g>
  <!-- 反转链表&#45;&gt;234 -->
  <g class="edge" id="edge4">
   <title>
    反转链表-&gt;234
   </title>
   <path d="M190.68,-647.7C188.78,-640.32 186.52,-631.52 184.39,-623.25" fill="none" stroke="lightgrey"/>
   <polygon fill="lightgrey" points="187.78,-622.38 181.9,-613.57 181,-624.13 187.78,-622.38" stroke="lightgrey"/>
  </g>
  <!-- 206 -->
  <g class="node" id="node6">
   <title>
    206
   </title>
   <g id="a_node6">
    <a target="_parent" xlink:href="https://leetcode-cn.com/problems/reverse-linked-list" xlink:title="206. 反转链表">
     <polygon fill="none" points="178.62,-540 87.62,-540 87.62,-504 178.62,-504 178.62,-540" stroke="greenyellow"/>
     <text font-family="Microsoft YaHei" font-size="12.00" text-anchor="middle" x="133.12" y="-518.85">
      206. 反转链表
     </text>
    </a>
   </g>
  </g>
  <!-- 234&#45;&gt;206 -->
  <g class="edge" id="edge5">
   <title>
    234-&gt;206
   </title>
   <path d="M166.25,-575.7C161.35,-567.9 155.44,-558.51 149.99,-549.83" fill="none" stroke="lightgrey"/>
   <polygon fill="lightgrey" points="152.97,-547.99 144.68,-541.39 147.04,-551.71 152.97,-547.99" stroke="lightgrey"/>
  </g>
  <!-- 24 -->
  <g class="node" id="node7">
   <title>
    24
   </title>
   <g id="a_node7">
    <a target="_parent" xlink:href="https://leetcode-cn.com/problems/swap-nodes-in-pairs" xlink:title="24. 两两交换链表中的节点">
     <polygon fill="none" points="156.25,-468 0,-468 0,-432 156.25,-432 156.25,-468" stroke="orange"/>
     <text font-family="Microsoft YaHei" font-size="12.00" text-anchor="middle" x="78.12" y="-446.85">
      24. 两两交换链表中的节点
     </text>
    </a>
   </g>
  </g>
  <!-- 206&#45;&gt;24 -->
  <g class="edge" id="edge6">
   <title>
    206-&gt;24
   </title>
   <path d="M119.53,-503.7C113.2,-495.64 105.54,-485.89 98.54,-476.98" fill="none" stroke="lightgrey"/>
   <polygon fill="lightgrey" points="101.43,-475 92.5,-469.29 95.93,-479.32 101.43,-475" stroke="lightgrey"/>
  </g>
  <!-- 25 -->
  <g class="node" id="node8">
   <title>
    25
   </title>
   <g id="a_node8">
    <a target="_parent" xlink:href="https://leetcode-cn.com/problems/reverse-nodes-in-k-group" xlink:title="25. K 个一组翻转链表">
     <polygon fill="none" points="143.88,-396 12.38,-396 12.38,-360 143.88,-360 143.88,-396" stroke="red"/>
     <text font-family="Microsoft YaHei" font-size="12.00" text-anchor="middle" x="78.12" y="-374.85">
      25. K 个一组翻转链表
     </text>
    </a>
   </g>
  </g>
  <!-- 24&#45;&gt;25 -->
  <g class="edge" id="edge7">
   <title>
    24-&gt;25
   </title>
   <path d="M78.12,-431.7C78.12,-424.41 78.12,-415.73 78.12,-407.54" fill="none" stroke="lightgrey"/>
   <polygon fill="lightgrey" points="81.63,-407.62 78.13,-397.62 74.63,-407.62 81.63,-407.62" stroke="lightgrey"/>
  </g>
  <!-- 92 -->
  <g class="node" id="node9">
   <title>
    92
   </title>
   <g id="a_node9">
    <a target="_parent" xlink:href="https://leetcode-cn.com/problems/reverse-linked-list-ii" xlink:title="92. 反转链表 II">
     <polygon fill="none" points="124.88,-324 29.38,-324 29.38,-288 124.88,-288 124.88,-324" stroke="orange"/>
     <text font-family="Microsoft YaHei" font-size="12.00" text-anchor="middle" x="77.12" y="-302.85">
      92. 反转链表 II
     </text>
    </a>
   </g>
  </g>
  <!-- 25&#45;&gt;92 -->
  <g class="edge" id="edge8">
   <title>
    25-&gt;92
   </title>
   <path d="M77.88,-359.7C77.77,-352.41 77.65,-343.73 77.53,-335.54" fill="none" stroke="lightgrey"/>
   <polygon fill="lightgrey" points="81.03,-335.57 77.39,-325.62 74.03,-335.67 81.03,-335.57" stroke="lightgrey"/>
  </g>
  <!-- 143 -->
  <g class="node" id="node10">
   <title>
    143
   </title>
   <g id="a_node10">
    <a target="_parent" xlink:href="https://leetcode-cn.com/problems/reorder-list" xlink:title="143. 重排链表">
     <polygon fill="none" points="122.62,-252 31.62,-252 31.62,-216 122.62,-216 122.62,-252" stroke="orange"/>
     <text font-family="Microsoft YaHei" font-size="12.00" text-anchor="middle" x="77.12" y="-230.85">
      143. 重排链表
     </text>
    </a>
   </g>
  </g>
  <!-- 92&#45;&gt;143 -->
  <g class="edge" id="edge9">
   <title>
    92-&gt;143
   </title>
   <path d="M77.12,-287.7C77.12,-280.41 77.12,-271.73 77.12,-263.54" fill="none" stroke="lightgrey"/>
   <polygon fill="lightgrey" points="80.63,-263.62 77.13,-253.62 73.63,-263.62 80.63,-263.62" stroke="lightgrey"/>
  </g>
  <!-- 237 -->
  <g class="node" id="node12">
   <title>
    237
   </title>
   <g id="a_node12">
    <a target="_parent" xlink:href="https://leetcode-cn.com/problems/delete-node-in-a-linked-list" xlink:title="237. 删除链表中的节点">
     <polygon fill="none" points="379.62,-612 240.62,-612 240.62,-576 379.62,-576 379.62,-612" stroke="greenyellow"/>
     <text font-family="Microsoft YaHei" font-size="12.00" text-anchor="middle" x="310.12" y="-590.85">
      237. 删除链表中的节点
     </text>
    </a>
   </g>
  </g>
  <!-- 删除链表&#45;&gt;237 -->
  <g class="edge" id="edge11">
   <title>
    删除链表-&gt;237
   </title>
   <path d="M314.64,-647.7C314.02,-640.41 313.27,-631.73 312.57,-623.54" fill="none" stroke="lightgrey"/>
   <polygon fill="lightgrey" points="316.06,-623.28 311.72,-613.61 309.09,-623.87 316.06,-623.28" stroke="lightgrey"/>
  </g>
  <!-- 203 -->
  <g class="node" id="node13">
   <title>
    203
   </title>
   <g id="a_node13">
    <a target="_parent" xlink:href="https://leetcode-cn.com/problems/remove-linked-list-elements" xlink:title="203. 移除链表元素">
     <polygon fill="none" points="343.62,-540 228.62,-540 228.62,-504 343.62,-504 343.62,-540" stroke="greenyellow"/>
     <text font-family="Microsoft YaHei" font-size="12.00" text-anchor="middle" x="286.12" y="-518.85">
      203. 移除链表元素
     </text>
    </a>
   </g>
  </g>
  <!-- 237&#45;&gt;203 -->
  <g class="edge" id="edge12">
   <title>
    237-&gt;203
   </title>
   <path d="M304.19,-575.7C301.63,-568.24 298.58,-559.32 295.71,-550.97" fill="none" stroke="lightgrey"/>
   <polygon fill="lightgrey" points="299.03,-549.86 292.48,-541.54 292.41,-552.13 299.03,-549.86" stroke="lightgrey"/>
  </g>
  <!-- 83 -->
  <g class="node" id="node14">
   <title>
    83
   </title>
   <g id="a_node14">
    <a target="_parent" xlink:href="https://leetcode-cn.com/problems/remove-duplicates-from-sorted-list" xlink:title="83. 删除排序链表中的重复元素">
     <polygon fill="none" points="354.25,-468 174,-468 174,-432 354.25,-432 354.25,-468" stroke="greenyellow"/>
     <text font-family="Microsoft YaHei" font-size="12.00" text-anchor="middle" x="264.12" y="-446.85">
      83. 删除排序链表中的重复元素
     </text>
    </a>
   </g>
  </g>
  <!-- 203&#45;&gt;83 -->
  <g class="edge" id="edge13">
   <title>
    203-&gt;83
   </title>
   <path d="M280.69,-503.7C278.34,-496.24 275.54,-487.32 272.91,-478.97" fill="none" stroke="lightgrey"/>
   <polygon fill="lightgrey" points="276.29,-478.04 269.95,-469.55 269.61,-480.14 276.29,-478.04" stroke="lightgrey"/>
  </g>
  <!-- 82 -->
  <g class="node" id="node15">
   <title>
    82
   </title>
   <g id="a_node15">
    <a target="_parent" xlink:href="https://leetcode-cn.com/problems/remove-duplicates-from-sorted-list-ii" xlink:title="82. 删除排序链表中的重复元素 II">
     <polygon fill="none" points="359.88,-396 168.38,-396 168.38,-360 359.88,-360 359.88,-396" stroke="orange"/>
     <text font-family="Microsoft YaHei" font-size="12.00" text-anchor="middle" x="264.12" y="-374.85">
      82. 删除排序链表中的重复元素 II
     </text>
    </a>
   </g>
  </g>
  <!-- 83&#45;&gt;82 -->
  <g class="edge" id="edge14">
   <title>
    83-&gt;82
   </title>
   <path d="M264.12,-431.7C264.12,-424.41 264.12,-415.73 264.12,-407.54" fill="none" stroke="lightgrey"/>
   <polygon fill="lightgrey" points="267.63,-407.62 264.13,-397.62 260.63,-407.62 267.63,-407.62" stroke="lightgrey"/>
  </g>
  <!-- 1171 -->
  <g class="node" id="node16">
   <title>
    1171
   </title>
   <g id="a_node16">
    <a target="_parent" xlink:href="https://leetcode-cn.com/problems/remove-zero-sum-consecutive-nodes-from-linked-list" xlink:title="1171. 从链表中删去总和值为零的连续节点">
     <polygon fill="none" points="385,-324 143.25,-324 143.25,-288 385,-288 385,-324" stroke="orange"/>
     <text font-family="Microsoft YaHei" font-size="12.00" text-anchor="middle" x="264.12" y="-302.85">
      1171. 从链表中删去总和值为零的连续节点
     </text>
    </a>
   </g>
  </g>
  <!-- 82&#45;&gt;1171 -->
  <g class="edge" id="edge15">
   <title>
    82-&gt;1171
   </title>
   <path d="M264.12,-359.7C264.12,-352.41 264.12,-343.73 264.12,-335.54" fill="none" stroke="lightgrey"/>
   <polygon fill="lightgrey" points="267.63,-335.62 264.13,-325.62 260.63,-335.62 267.63,-335.62" stroke="lightgrey"/>
  </g>
  <!-- 2 -->
  <g class="node" id="node18">
   <title>
    2
   </title>
   <g id="a_node18">
    <a target="_parent" xlink:href="https://leetcode-cn.com/problems/add-two-numbers" xlink:title="2. 两数相加">
     <polygon fill="none" points="474.88,-612 397.38,-612 397.38,-576 474.88,-576 474.88,-612" stroke="orange"/>
     <text font-family="Microsoft YaHei" font-size="12.00" text-anchor="middle" x="436.12" y="-590.85">
      2. 两数相加
     </text>
    </a>
   </g>
  </g>
  <!-- 构建新链表&#45;&gt;2 -->
  <g class="edge" id="edge17">
   <title>
    构建新链表-&gt;2
   </title>
   <path d="M431.61,-647.7C432.23,-640.41 432.98,-631.73 433.68,-623.54" fill="none" stroke="lightgrey"/>
   <polygon fill="lightgrey" points="437.16,-623.87 434.53,-613.61 430.19,-623.28 437.16,-623.87" stroke="lightgrey"/>
  </g>
  <!-- 445 -->
  <g class="node" id="node19">
   <title>
    445
   </title>
   <g id="a_node19">
    <a target="_parent" xlink:href="https://leetcode-cn.com/problems/add-two-numbers-ii" xlink:title="445. 两数相加 II">
     <polygon fill="none" points="487.25,-540 385,-540 385,-504 487.25,-504 487.25,-540" stroke="orange"/>
     <text font-family="Microsoft YaHei" font-size="12.00" text-anchor="middle" x="436.12" y="-518.85">
      445. 两数相加 II
     </text>
    </a>
   </g>
  </g>
  <!-- 2&#45;&gt;445 -->
  <g class="edge" id="edge18">
   <title>
    2-&gt;445
   </title>
   <path d="M436.12,-575.7C436.12,-568.41 436.12,-559.73 436.12,-551.54" fill="none" stroke="lightgrey"/>
   <polygon fill="lightgrey" points="439.63,-551.62 436.13,-541.62 432.63,-551.62 439.63,-551.62" stroke="lightgrey"/>
  </g>
  <!-- 430 -->
  <g class="node" id="node20">
   <title>
    430
   </title>
   <g id="a_node20">
    <a target="_parent" xlink:href="https://leetcode-cn.com/problems/flatten-a-multilevel-doubly-linked-list" xlink:title="430. 扁平化多级双向链表">
     <polygon fill="none" points="523.62,-468 372.62,-468 372.62,-432 523.62,-432 523.62,-468" stroke="orange"/>
     <text font-family="Microsoft YaHei" font-size="12.00" text-anchor="middle" x="448.12" y="-446.85">
      430. 扁平化多级双向链表
     </text>
    </a>
   </g>
  </g>
  <!-- 445&#45;&gt;430 -->
  <g class="edge" id="edge19">
   <title>
    445-&gt;430
   </title>
   <path d="M439.09,-503.7C440.36,-496.32 441.86,-487.52 443.28,-479.25" fill="none" stroke="lightgrey"/>
   <polygon fill="lightgrey" points="446.7,-480.04 444.94,-469.6 439.8,-478.86 446.7,-480.04" stroke="lightgrey"/>
  </g>
  <!-- 1669 -->
  <g class="node" id="node21">
   <title>
    1669
   </title>
   <g id="a_node21">
    <a target="_parent" xlink:href="https://leetcode-cn.com/problems/merge-in-between-linked-lists" xlink:title="1669. 合并两个链表">
     <polygon fill="none" points="507,-396 385.25,-396 385.25,-360 507,-360 507,-396" stroke="orange"/>
     <text font-family="Microsoft YaHei" font-size="12.00" text-anchor="middle" x="446.12" y="-374.85">
      1669. 合并两个链表
     </text>
    </a>
   </g>
  </g>
  <!-- 430&#45;&gt;1669 -->
  <g class="edge" id="edge20">
   <title>
    430-&gt;1669
   </title>
   <path d="M447.63,-431.7C447.42,-424.41 447.17,-415.73 446.94,-407.54" fill="none" stroke="lightgrey"/>
   <polygon fill="lightgrey" points="450.44,-407.51 446.66,-397.62 443.44,-407.71 450.44,-407.51" stroke="lightgrey"/>
  </g>
  <!-- 86 -->
  <g class="node" id="node22">
   <title>
    86
   </title>
   <g id="a_node22">
    <a target="_parent" xlink:href="https://leetcode-cn.com/problems/partition-list" xlink:title="86. 分隔链表">
     <polygon fill="none" points="488.25,-324 404,-324 404,-288 488.25,-288 488.25,-324" stroke="orange"/>
     <text font-family="Microsoft YaHei" font-size="12.00" text-anchor="middle" x="446.12" y="-302.85">
      86. 分隔链表
     </text>
    </a>
   </g>
  </g>
  <!-- 1669&#45;&gt;86 -->
  <g class="edge" id="edge21">
   <title>
    1669-&gt;86
   </title>
   <path d="M446.12,-359.7C446.12,-352.41 446.12,-343.73 446.12,-335.54" fill="none" stroke="lightgrey"/>
   <polygon fill="lightgrey" points="449.63,-335.62 446.13,-325.62 442.63,-335.62 449.63,-335.62" stroke="lightgrey"/>
  </g>
  <!-- 328 -->
  <g class="node" id="node23">
   <title>
    328
   </title>
   <g id="a_node23">
    <a target="_parent" xlink:href="https://leetcode-cn.com/problems/odd-even-linked-list" xlink:title="328. 奇偶链表">
     <polygon fill="none" points="491.62,-252 400.62,-252 400.62,-216 491.62,-216 491.62,-252" stroke="orange"/>
     <text font-family="Microsoft YaHei" font-size="12.00" text-anchor="middle" x="446.12" y="-230.85">
      328. 奇偶链表
     </text>
    </a>
   </g>
  </g>
  <!-- 86&#45;&gt;328 -->
  <g class="edge" id="edge22">
   <title>
    86-&gt;328
   </title>
   <path d="M446.12,-287.7C446.12,-280.41 446.12,-271.73 446.12,-263.54" fill="none" stroke="lightgrey"/>
   <polygon fill="lightgrey" points="449.63,-263.62 446.13,-253.62 442.63,-263.62 449.63,-263.62" stroke="lightgrey"/>
  </g>
  <!-- 725 -->
  <g class="node" id="node24">
   <title>
    725
   </title>
   <g id="a_node24">
    <a target="_parent" xlink:href="https://leetcode-cn.com/problems/split-linked-list-in-parts" xlink:title="725. 分隔链表">
     <polygon fill="none" points="491.62,-180 400.62,-180 400.62,-144 491.62,-144 491.62,-180" stroke="orange"/>
     <text font-family="Microsoft YaHei" font-size="12.00" text-anchor="middle" x="446.12" y="-158.85">
      725. 分隔链表
     </text>
    </a>
   </g>
  </g>
  <!-- 328&#45;&gt;725 -->
  <g class="edge" id="edge23">
   <title>
    328-&gt;725
   </title>
   <path d="M446.12,-215.7C446.12,-208.41 446.12,-199.73 446.12,-191.54" fill="none" stroke="lightgrey"/>
   <polygon fill="lightgrey" points="449.63,-191.62 446.13,-181.62 442.63,-191.62 449.63,-191.62" stroke="lightgrey"/>
  </g>
  <!-- 21 -->
  <g class="node" id="node25">
   <title>
    21
   </title>
   <g id="a_node25">
    <a target="_parent" xlink:href="https://leetcode-cn.com/problems/merge-two-sorted-lists" xlink:title="21. 合并两个有序链表">
     <polygon fill="none" points="512.25,-108 380,-108 380,-72 512.25,-72 512.25,-108" stroke="greenyellow"/>
     <text font-family="Microsoft YaHei" font-size="12.00" text-anchor="middle" x="446.12" y="-86.85">
      21. 合并两个有序链表
     </text>
    </a>
   </g>
  </g>
  <!-- 725&#45;&gt;21 -->
  <g class="edge" id="edge24">
   <title>
    725-&gt;21
   </title>
   <path d="M446.12,-143.7C446.12,-136.41 446.12,-127.73 446.12,-119.54" fill="none" stroke="lightgrey"/>
   <polygon fill="lightgrey" points="449.63,-119.62 446.13,-109.62 442.63,-119.62 449.63,-119.62" stroke="lightgrey"/>
  </g>
  <!-- 23 -->
  <g class="node" id="node26">
   <title>
    23
   </title>
   <g id="a_node26">
    <a target="_parent" xlink:href="https://leetcode-cn.com/problems/merge-k-sorted-lists" xlink:title="23. 合并K个升序链表">
     <polygon fill="none" points="510,-36 382.25,-36 382.25,0 510,0 510,-36" stroke="red"/>
     <text font-family="Microsoft YaHei" font-size="12.00" text-anchor="middle" x="446.12" y="-14.85">
      23. 合并K个升序链表
     </text>
    </a>
   </g>
  </g>
  <!-- 21&#45;&gt;23 -->
  <g class="edge" id="edge25">
   <title>
    21-&gt;23
   </title>
   <path d="M446.12,-71.7C446.12,-64.41 446.12,-55.73 446.12,-47.54" fill="none" stroke="lightgrey"/>
   <polygon fill="lightgrey" points="449.63,-47.62 446.13,-37.62 442.63,-47.62 449.63,-47.62" stroke="lightgrey"/>
  </g>
  <!-- 876 -->
  <g class="node" id="node28">
   <title>
    876
   </title>
   <g id="a_node28">
    <a target="_parent" xlink:href="https://leetcode-cn.com/problems/middle-of-the-linked-list" xlink:title="876. 链表的中间结点">
     <polygon fill="none" points="640.62,-612 513.62,-612 513.62,-576 640.62,-576 640.62,-612" stroke="greenyellow"/>
     <text font-family="Microsoft YaHei" font-size="12.00" text-anchor="middle" x="577.12" y="-590.85">
      876. 链表的中间结点
     </text>
    </a>
   </g>
  </g>
  <!-- 快慢指针&#45;&gt;876 -->
  <g class="edge" id="edge27">
   <title>
    快慢指针-&gt;876
   </title>
   <path d="M543.25,-647.7C548.32,-639.81 554.43,-630.3 560.06,-621.55" fill="none" stroke="lightgrey"/>
   <polygon fill="lightgrey" points="562.85,-623.68 565.31,-613.38 556.96,-619.9 562.85,-623.68" stroke="lightgrey"/>
  </g>
  <!-- 19 -->
  <g class="node" id="node29">
   <title>
    19
   </title>
   <g id="a_node29">
    <a target="_parent" xlink:href="https://leetcode-cn.com/problems/remove-nth-node-from-end-of-list" xlink:title="19. 删除链表的倒数第 N 个结点">
     <polygon fill="none" points="690.88,-540 505.38,-540 505.38,-504 690.88,-504 690.88,-540" stroke="orange"/>
     <text font-family="Microsoft YaHei" font-size="12.00" text-anchor="middle" x="598.12" y="-518.85">
      19. 删除链表的倒数第 N 个结点
     </text>
    </a>
   </g>
  </g>
  <!-- 876&#45;&gt;19 -->
  <g class="edge" id="edge28">
   <title>
    876-&gt;19
   </title>
   <path d="M582.32,-575.7C584.55,-568.24 587.23,-559.32 589.74,-550.97" fill="none" stroke="lightgrey"/>
   <polygon fill="lightgrey" points="593.04,-552.14 592.56,-541.55 586.33,-550.13 593.04,-552.14" stroke="lightgrey"/>
  </g>
  <!-- 61 -->
  <g class="node" id="node30">
   <title>
    61
   </title>
   <g id="a_node30">
    <a target="_parent" xlink:href="https://leetcode-cn.com/problems/rotate-list" xlink:title="61. 旋转链表">
     <polygon fill="none" points="640.25,-468 556,-468 556,-432 640.25,-432 640.25,-468" stroke="orange"/>
     <text font-family="Microsoft YaHei" font-size="12.00" text-anchor="middle" x="598.12" y="-446.85">
      61. 旋转链表
     </text>
    </a>
   </g>
  </g>
  <!-- 19&#45;&gt;61 -->
  <g class="edge" id="edge29">
   <title>
    19-&gt;61
   </title>
   <path d="M598.12,-503.7C598.12,-496.41 598.12,-487.73 598.12,-479.54" fill="none" stroke="lightgrey"/>
   <polygon fill="lightgrey" points="601.63,-479.62 598.13,-469.62 594.63,-479.62 601.63,-479.62" stroke="lightgrey"/>
  </g>
  <!-- 1721 -->
  <g class="node" id="node31">
   <title>
    1721
   </title>
   <g id="a_node31">
    <a target="_parent" xlink:href="https://leetcode-cn.com/problems/swapping-nodes-in-a-linked-list" xlink:title="1721. 交换链表中的节点">
     <polygon fill="none" points="671,-396 525.25,-396 525.25,-360 671,-360 671,-396" stroke="orange"/>
     <text font-family="Microsoft YaHei" font-size="12.00" text-anchor="middle" x="598.12" y="-374.85">
      1721. 交换链表中的节点
     </text>
    </a>
   </g>
  </g>
  <!-- 61&#45;&gt;1721 -->
  <g class="edge" id="edge30">
   <title>
    61-&gt;1721
   </title>
   <path d="M598.12,-431.7C598.12,-424.41 598.12,-415.73 598.12,-407.54" fill="none" stroke="lightgrey"/>
   <polygon fill="lightgrey" points="601.63,-407.62 598.13,-397.62 594.63,-407.62 601.63,-407.62" stroke="lightgrey"/>
  </g>
  <!-- 109 -->
  <g class="node" id="node32">
   <title>
    109
   </title>
   <g id="a_node32">
    <a target="_parent" xlink:href="https://leetcode-cn.com/problems/convert-sorted-list-to-binary-search-tree" xlink:title="109. 有序链表转换二叉搜索树">
     <polygon fill="none" points="685.62,-324 510.62,-324 510.62,-288 685.62,-288 685.62,-324" stroke="orange"/>
     <text font-family="Microsoft YaHei" font-size="12.00" text-anchor="middle" x="598.12" y="-302.85">
      109. 有序链表转换二叉搜索树
     </text>
    </a>
   </g>
  </g>
  <!-- 1721&#45;&gt;109 -->
  <g class="edge" id="edge31">
   <title>
    1721-&gt;109
   </title>
   <path d="M598.12,-359.7C598.12,-352.41 598.12,-343.73 598.12,-335.54" fill="none" stroke="lightgrey"/>
   <polygon fill="lightgrey" points="601.63,-335.62 598.13,-325.62 594.63,-335.62 601.63,-335.62" stroke="lightgrey"/>
  </g>
  <!-- 141 -->
  <g class="node" id="node33">
   <title>
    141
   </title>
   <g id="a_node33">
    <a target="_parent" xlink:href="https://leetcode-cn.com/problems/linked-list-cycle" xlink:title="141. 环形链表">
     <polygon fill="none" points="643.62,-252 552.62,-252 552.62,-216 643.62,-216 643.62,-252" stroke="greenyellow"/>
     <text font-family="Microsoft YaHei" font-size="12.00" text-anchor="middle" x="598.12" y="-230.85">
      141. 环形链表
     </text>
    </a>
   </g>
  </g>
  <!-- 109&#45;&gt;141 -->
  <g class="edge" id="edge32">
   <title>
    109-&gt;141
   </title>
   <path d="M598.12,-287.7C598.12,-280.41 598.12,-271.73 598.12,-263.54" fill="none" stroke="lightgrey"/>
   <polygon fill="lightgrey" points="601.63,-263.62 598.13,-253.62 594.63,-263.62 601.63,-263.62" stroke="lightgrey"/>
  </g>
  <!-- 160 -->
  <g class="node" id="node34">
   <title>
    160
   </title>
   <g id="a_node34">
    <a target="_parent" xlink:href="https://leetcode-cn.com/problems/intersection-of-two-linked-lists" xlink:title="160. 相交链表">
     <polygon fill="none" points="643.62,-180 552.62,-180 552.62,-144 643.62,-144 643.62,-180" stroke="greenyellow"/>
     <text font-family="Microsoft YaHei" font-size="12.00" text-anchor="middle" x="598.12" y="-158.85">
      160. 相交链表
     </text>
    </a>
   </g>
  </g>
  <!-- 141&#45;&gt;160 -->
  <g class="edge" id="edge33">
   <title>
    141-&gt;160
   </title>
   <path d="M598.12,-215.7C598.12,-208.41 598.12,-199.73 598.12,-191.54" fill="none" stroke="lightgrey"/>
   <polygon fill="lightgrey" points="601.63,-191.62 598.13,-181.62 594.63,-191.62 601.63,-191.62" stroke="lightgrey"/>
  </g>
  <!-- 142 -->
  <g class="node" id="node35">
   <title>
    142
   </title>
   <g id="a_node35">
    <a target="_parent" xlink:href="https://leetcode-cn.com/problems/linked-list-cycle-ii" xlink:title="142. 环形链表 II">
     <polygon fill="none" points="649.25,-108 547,-108 547,-72 649.25,-72 649.25,-108" stroke="orange"/>
     <text font-family="Microsoft YaHei" font-size="12.00" text-anchor="middle" x="598.12" y="-86.85">
      142. 环形链表 II
     </text>
    </a>
   </g>
  </g>
  <!-- 160&#45;&gt;142 -->
  <g class="edge" id="edge34">
   <title>
    160-&gt;142
   </title>
   <path d="M598.12,-143.7C598.12,-136.41 598.12,-127.73 598.12,-119.54" fill="none" stroke="lightgrey"/>
   <polygon fill="lightgrey" points="601.63,-119.62 598.13,-109.62 594.63,-119.62 601.63,-119.62" stroke="lightgrey"/>
  </g>
  <!-- 1290 -->
  <g class="node" id="node37">
   <title>
    1290
   </title>
   <g id="a_node37">
    <a target="_parent" xlink:href="https://leetcode-cn.com/problems/convert-binary-number-in-a-linked-list-to-integer" xlink:title="1290. 二进制链表转整数">
     <polygon fill="none" points="819,-612 673.25,-612 673.25,-576 819,-576 819,-612" stroke="greenyellow"/>
     <text font-family="Microsoft YaHei" font-size="12.00" text-anchor="middle" x="746.12" y="-590.85">
      1290. 二进制链表转整数
     </text>
    </a>
   </g>
  </g>
  <!-- 链表和其他算法&#45;&gt;1290 -->
  <g class="edge" id="edge36">
   <title>
    链表和其他算法-&gt;1290
   </title>
   <path d="M671.1,-647.52C683.48,-638.85 698.63,-628.25 712.05,-618.85" fill="none" stroke="lightgrey"/>
   <polygon fill="lightgrey" points="714.04,-621.73 720.23,-613.13 710.03,-616 714.04,-621.73" stroke="lightgrey"/>
  </g>
  <!-- 817 -->
  <g class="node" id="node38">
   <title>
    817
   </title>
   <g id="a_node38">
    <a target="_parent" xlink:href="https://leetcode-cn.com/problems/linked-list-components" xlink:title="817. 链表组件">
     <polygon fill="none" points="805.62,-540 714.62,-540 714.62,-504 805.62,-504 805.62,-540" stroke="orange"/>
     <text font-family="Microsoft YaHei" font-size="12.00" text-anchor="middle" x="760.12" y="-518.85">
      817. 链表组件
     </text>
    </a>
   </g>
  </g>
  <!-- 1290&#45;&gt;817 -->
  <g class="edge" id="edge37">
   <title>
    1290-&gt;817
   </title>
   <path d="M749.59,-575.7C751.06,-568.32 752.82,-559.52 754.47,-551.25" fill="none" stroke="lightgrey"/>
   <polygon fill="lightgrey" points="757.88,-552.08 756.41,-541.59 751.01,-550.71 757.88,-552.08" stroke="lightgrey"/>
  </g>
  <!-- 1367 -->
  <g class="node" id="node39">
   <title>
    1367
   </title>
   <g id="a_node39">
    <a target="_parent" xlink:href="https://leetcode-cn.com/problems/linked-list-in-binary-tree" xlink:title="1367. 二叉树中的列表">
     <polygon fill="none" points="840,-468 706.25,-468 706.25,-432 840,-432 840,-468" stroke="orange"/>
     <text font-family="Microsoft YaHei" font-size="12.00" text-anchor="middle" x="773.12" y="-446.85">
      1367. 二叉树中的列表
     </text>
    </a>
   </g>
  </g>
  <!-- 817&#45;&gt;1367 -->
  <g class="edge" id="edge38">
   <title>
    817-&gt;1367
   </title>
   <path d="M763.34,-503.7C764.71,-496.32 766.34,-487.52 767.88,-479.25" fill="none" stroke="lightgrey"/>
   <polygon fill="lightgrey" points="771.29,-480.06 769.67,-469.59 764.4,-478.79 771.29,-480.06" stroke="lightgrey"/>
  </g>
  <!-- 1019 -->
  <g class="node" id="node40">
   <title>
    1019
   </title>
   <g id="a_node40">
    <a target="_parent" xlink:href="https://leetcode-cn.com/problems/next-greater-node-in-linked-list" xlink:title="1019. 链表中的下一个更大节点">
     <polygon fill="none" points="871,-396 689.25,-396 689.25,-360 871,-360 871,-396" stroke="orange"/>
     <text font-family="Microsoft YaHei" font-size="12.00" text-anchor="middle" x="780.12" y="-374.85">
      1019. 链表中的下一个更大节点
     </text>
    </a>
   </g>
  </g>
  <!-- 1367&#45;&gt;1019 -->
  <g class="edge" id="edge39">
   <title>
    1367-&gt;1019
   </title>
   <path d="M774.86,-431.7C775.58,-424.41 776.45,-415.73 777.27,-407.54" fill="none" stroke="lightgrey"/>
   <polygon fill="lightgrey" points="780.75,-407.91 778.26,-397.61 773.79,-407.21 780.75,-407.91" stroke="lightgrey"/>
  </g>
  <!-- 147 -->
  <g class="node" id="node41">
   <title>
    147
   </title>
   <g id="a_node41">
    <a target="_parent" xlink:href="https://leetcode-cn.com/problems/insertion-sort-list" xlink:title="147. 对链表进行插入排序">
     <polygon fill="none" points="855.62,-324 704.62,-324 704.62,-288 855.62,-288 855.62,-324" stroke="orange"/>
     <text font-family="Microsoft YaHei" font-size="12.00" text-anchor="middle" x="780.12" y="-302.85">
      147. 对链表进行插入排序
     </text>
    </a>
   </g>
  </g>
  <!-- 1019&#45;&gt;147 -->
  <g class="edge" id="edge40">
   <title>
    1019-&gt;147
   </title>
   <path d="M780.12,-359.7C780.12,-352.41 780.12,-343.73 780.12,-335.54" fill="none" stroke="lightgrey"/>
   <polygon fill="lightgrey" points="783.63,-335.62 780.13,-325.62 776.63,-335.62 783.63,-335.62" stroke="lightgrey"/>
  </g>
  <!-- 148 -->
  <g class="node" id="node42">
   <title>
    148
   </title>
   <g id="a_node42">
    <a target="_parent" xlink:href="https://leetcode-cn.com/problems/sort-list" xlink:title="148. 排序链表">
     <polygon fill="none" points="825.62,-252 734.62,-252 734.62,-216 825.62,-216 825.62,-252" stroke="orange"/>
     <text font-family="Microsoft YaHei" font-size="12.00" text-anchor="middle" x="780.12" y="-230.85">
      148. 排序链表
     </text>
    </a>
   </g>
  </g>
  <!-- 147&#45;&gt;148 -->
  <g class="edge" id="edge41">
   <title>
    147-&gt;148
   </title>
   <path d="M780.12,-287.7C780.12,-280.41 780.12,-271.73 780.12,-263.54" fill="none" stroke="lightgrey"/>
   <polygon fill="lightgrey" points="783.63,-263.62 780.13,-253.62 776.63,-263.62 783.63,-263.62" stroke="lightgrey"/>
  </g>
  <!-- 138 -->
  <g class="node" id="node43">
   <title>
    138
   </title>
   <g id="a_node43">
    <a target="_parent" xlink:href="https://leetcode-cn.com/problems/copy-list-with-random-pointer" xlink:title="138. 复制带随机指针的链表">
     <polygon fill="none" points="861.62,-180 698.62,-180 698.62,-144 861.62,-144 861.62,-180" stroke="orange"/>
     <text font-family="Microsoft YaHei" font-size="12.00" text-anchor="middle" x="780.12" y="-158.85">
      138. 复制带随机指针的链表
     </text>
    </a>
   </g>
  </g>
  <!-- 148&#45;&gt;138 -->
  <g class="edge" id="edge42">
   <title>
    148-&gt;138
   </title>
   <path d="M780.12,-215.7C780.12,-208.41 780.12,-199.73 780.12,-191.54" fill="none" stroke="lightgrey"/>
   <polygon fill="lightgrey" points="783.63,-191.62 780.13,-181.62 776.63,-191.62 783.63,-191.62" stroke="lightgrey"/>
  </g>
  <g class="key">
   <defs>
    <filter height="1.2" id="solid" width="1.2" x="-0.1" y="-0.1">
     <feFlood flood-color="#ccff90" result="bg"/>
     <feMerge>
      <feMergeNode in="bg"/>
      <feMergeNode in="SourceGraphic"/>
     </feMerge>
    </filter>
   </defs>
   <text filter="url(#solid)" font-family="Microsoft YaHei" font-size="10.00" text-anchor="middle" x="68.12" y="-571.0">
    链表增删改查
   </text>
  </g>
  <g class="key">
   <defs>
    <filter height="1.2" id="solid" width="1.2" x="-0.1" y="-0.1">
     <feFlood flood-color="#ccff90" result="bg"/>
     <feMerge>
      <feMergeNode in="bg"/>
      <feMergeNode in="SourceGraphic"/>
     </feMerge>
    </filter>
   </defs>
   <text filter="url(#solid)" font-family="Microsoft YaHei" font-size="10.00" text-anchor="middle" x="310.12" y="-571.0">
    简单删除
   </text>
  </g>
  <g class="key">
   <defs>
    <filter height="1.2" id="solid" width="1.2" x="-0.1" y="-0.1">
     <feFlood flood-color="#ccff90" result="bg"/>
     <feMerge>
      <feMergeNode in="bg"/>
      <feMergeNode in="SourceGraphic"/>
     </feMerge>
    </filter>
   </defs>
   <text filter="url(#solid)" font-family="Microsoft YaHei" font-size="10.00" text-anchor="middle" x="286.12" y="-499.0">
    删除多个
   </text>
  </g>
  <g class="key">
   <defs>
    <filter height="1.2" id="solid" width="1.2" x="-0.1" y="-0.1">
     <feFlood flood-color="#ccff90" result="bg"/>
     <feMerge>
      <feMergeNode in="bg"/>
      <feMergeNode in="SourceGraphic"/>
     </feMerge>
    </filter>
   </defs>
   <text filter="url(#solid)" font-family="Microsoft YaHei" font-size="10.00" text-anchor="middle" x="264.125" y="-283.0">
    区间和
   </text>
  </g>
  <g class="key">
   <defs>
    <filter height="1.2" id="solid" width="1.2" x="-0.1" y="-0.1">
     <feFlood flood-color="#ccff90" result="bg"/>
     <feMerge>
      <feMergeNode in="bg"/>
      <feMergeNode in="SourceGraphic"/>
     </feMerge>
    </filter>
   </defs>
   <text filter="url(#solid)" font-family="Microsoft YaHei" font-size="10.00" text-anchor="middle" x="446.125" y="5.0">
    堆
   </text>
  </g>
  <g class="key">
   <defs>
    <filter height="1.2" id="solid" width="1.2" x="-0.1" y="-0.1">
     <feFlood flood-color="#ccff90" result="bg"/>
     <feMerge>
      <feMergeNode in="bg"/>
      <feMergeNode in="SourceGraphic"/>
     </feMerge>
    </filter>
   </defs>
   <text filter="url(#solid)" font-family="Microsoft YaHei" font-size="10.00" text-anchor="middle" x="598.12" y="-139.0">
    路程相等
   </text>
  </g>
  <g class="key">
   <defs>
    <filter height="1.2" id="solid" width="1.2" x="-0.1" y="-0.1">
     <feFlood flood-color="#ccff90" result="bg"/>
     <feMerge>
      <feMergeNode in="bg"/>
      <feMergeNode in="SourceGraphic"/>
     </feMerge>
    </filter>
   </defs>
   <text filter="url(#solid)" font-family="Microsoft YaHei" font-size="10.00" text-anchor="middle" x="598.125" y="-67.0">
    公式推理
   </text>
  </g>
  <g class="key">
   <defs>
    <filter height="1.2" id="solid" width="1.2" x="-0.1" y="-0.1">
     <feFlood flood-color="#ccff90" result="bg"/>
     <feMerge>
      <feMergeNode in="bg"/>
      <feMergeNode in="SourceGraphic"/>
     </feMerge>
    </filter>
   </defs>
   <text filter="url(#solid)" font-family="Microsoft YaHei" font-size="10.00" text-anchor="middle" x="746.125" y="-571.0">
    位运算
   </text>
  </g>
  <g class="key">
   <defs>
    <filter height="1.2" id="solid" width="1.2" x="-0.1" y="-0.1">
     <feFlood flood-color="#ccff90" result="bg"/>
     <feMerge>
      <feMergeNode in="bg"/>
      <feMergeNode in="SourceGraphic"/>
     </feMerge>
    </filter>
   </defs>
   <text filter="url(#solid)" font-family="Microsoft YaHei" font-size="10.00" text-anchor="middle" x="760.12" y="-499.0">
    set
   </text>
  </g>
  <g class="key">
   <defs>
    <filter height="1.2" id="solid" width="1.2" x="-0.1" y="-0.1">
     <feFlood flood-color="#ccff90" result="bg"/>
     <feMerge>
      <feMergeNode in="bg"/>
      <feMergeNode in="SourceGraphic"/>
     </feMerge>
    </filter>
   </defs>
   <text filter="url(#solid)" font-family="Microsoft YaHei" font-size="10.00" text-anchor="middle" x="773.125" y="-427.0">
    二叉树搜索
   </text>
  </g>
  <g class="key">
   <defs>
    <filter height="1.2" id="solid" width="1.2" x="-0.1" y="-0.1">
     <feFlood flood-color="#ccff90" result="bg"/>
     <feMerge>
      <feMergeNode in="bg"/>
      <feMergeNode in="SourceGraphic"/>
     </feMerge>
    </filter>
   </defs>
   <text filter="url(#solid)" font-family="Microsoft YaHei" font-size="10.00" text-anchor="middle" x="780.125" y="-355.0">
    单调栈
   </text>
  </g>
  <g class="key">
   <defs>
    <filter height="1.2" id="solid" width="1.2" x="-0.1" y="-0.1">
     <feFlood flood-color="#ccff90" result="bg"/>
     <feMerge>
      <feMergeNode in="bg"/>
      <feMergeNode in="SourceGraphic"/>
     </feMerge>
    </filter>
   </defs>
   <text filter="url(#solid)" font-family="Microsoft YaHei" font-size="10.00" text-anchor="middle" x="780.12" y="-283.0">
    插入排序
   </text>
  </g>
  <g class="key">
   <defs>
    <filter height="1.2" id="solid" width="1.2" x="-0.1" y="-0.1">
     <feFlood flood-color="#ccff90" result="bg"/>
     <feMerge>
      <feMergeNode in="bg"/>
      <feMergeNode in="SourceGraphic"/>
     </feMerge>
    </filter>
   </defs>
   <text filter="url(#solid)" font-family="Microsoft YaHei" font-size="10.00" text-anchor="middle" x="780.12" y="-211.0">
    归并排序
   </text>
  </g>
  <g class="key">
   <defs>
    <filter height="1.2" id="solid" width="1.2" x="-0.1" y="-0.1">
     <feFlood flood-color="#ccff90" result="bg"/>
     <feMerge>
      <feMergeNode in="bg"/>
      <feMergeNode in="SourceGraphic"/>
     </feMerge>
    </filter>
   </defs>
   <text filter="url(#solid)" font-family="Microsoft YaHei" font-size="10.00" text-anchor="middle" x="780.12" y="-139.0">
    map映射
   </text>
  </g>
 </g>
</svg>